<svg id="Layer_1" data-name="Layer 1" xmlns="http://www.w3.org/2000/svg" viewBox="0 0 595.28 841.89"><defs><style>.cls-1,.cls-4,.cls-6{fill:none;}.cls-2{fill:#4b27d9;}.cls-3{fill:#e3bff7;}.cls-4,.cls-5,.cls-6{stroke:#000;}.cls-4,.cls-5{stroke-miterlimit:10;}.cls-6{stroke-linecap:round;stroke-linejoin:round;stroke-width:4px;}</style></defs><path class="cls-1" d="M276.05,391.12a27.71,27.71,0,1,1-27.71-27.7A27.71,27.71,0,0,1,276.05,391.12Z"/><circle class="cls-1" cx="294.32" cy="434.83" r="5.91"/><path class="cls-1" d="M368,391.12a27.71,27.71,0,1,1-27.7-27.7A27.71,27.71,0,0,1,368,391.12Z"/><path class="cls-2" d="M443.43,297.69v59.79a214.33,214.33,0,0,0-298.23,0v-59.8a53.33,53.33,0,0,1,53.17-53.18H390.26A53.33,53.33,0,0,1,443.43,297.69Z"/><path class="cls-3" d="M294.32,297.11A213.58,213.58,0,0,0,145.2,357.49V489.57a53.33,53.33,0,0,0,53.17,53.18H390.26a53.33,53.33,0,0,0,53.17-53.18V357.48A213.63,213.63,0,0,0,294.32,297.11Zm-46,121.72a27.71,27.71,0,1,1,27.71-27.71A27.71,27.71,0,0,1,248.34,418.83Zm46,21.91a5.91,5.91,0,1,1,5.91-5.91A5.91,5.91,0,0,1,294.32,440.74Zm46-21.91A27.71,27.71,0,1,1,368,391.12,27.71,27.71,0,0,1,340.29,418.83Z"/><path class="cls-1" d="M276.05,391.12a27.71,27.71,0,1,1-27.71-27.7A27.71,27.71,0,0,1,276.05,391.12Z"/><circle class="cls-1" cx="294.32" cy="434.83" r="5.91"/><path class="cls-1" d="M368,391.12a27.71,27.71,0,1,1-27.7-27.7A27.71,27.71,0,0,1,368,391.12Z"/><path class="cls-4" d="M368,391.12a27.71,27.71,0,1,1-27.7-27.7A27.71,27.71,0,0,1,368,391.12Z"/><path class="cls-4" d="M276.05,391.12a27.71,27.71,0,1,1-27.71-27.7A27.71,27.71,0,0,1,276.05,391.12Z"/><circle class="cls-5" cx="294.32" cy="434.83" r="5.91"/><path class="cls-6" d="M256.31,447.53a41.26,41.26,0,0,0,35.86,26.55c17.16,1,33.34-9.3,40.15-25.63"/><circle class="cls-5" cx="248.34" cy="391.12" r="13.85"/><circle class="cls-5" cx="340.29" cy="391.12" r="13.85"/></svg>