<svg xmlns="http://www.w3.org/2000/svg" viewBox="0 0 272.68 262.64"><defs><style>.cls-1{fill:#f47171;}.cls-2{fill:#fff;}.cls-3{fill:#dbc0f2;}.cls-4{fill:#4b194e;opacity:0.1;isolation:isolate;}.cls-5{fill:#491249;}.cls-6{fill:none;stroke:#491249;stroke-linecap:round;stroke-linejoin:round;stroke-width:3.15px;}</style></defs><g id="Layer_2" data-name="Layer 2"><g id="Layer_1-2" data-name="Layer 1"><path class="cls-1" d="M197.94,109.77c0,1-.1,84.9-.1,84.9h-.1a22.11,22.11,0,0,1-42.3,9,21.12,21.12,0,0,1-38.2,0,22.17,22.17,0,0,1-42.4-9.1s-.1-83.8-.1-84.9c0-37.1,27.9-63.8,61.5-63.8C170,46,197.94,72.67,197.94,109.77Z"/><ellipse class="cls-2" cx="136.34" cy="131.32" rx="136.34" ry="131.32"/><path class="cls-3" d="M184,114.66c0,.77-.08,65.63-.08,65.63h-.08a17.09,17.09,0,0,1-32.7,7,16.32,16.32,0,0,1-29.52,0,17.14,17.14,0,0,1-32.78-7s-.07-64.78-.07-65.63c0-28.67,21.56-49.31,47.53-49.31C162.39,65.35,184,86,184,114.66Z"/><path class="cls-4" d="M183.88,161.74a17.13,17.13,0,0,1-28.52,12.75,6.49,6.49,0,0,0-8.58-.16,16.6,16.6,0,0,1-10.44,3.79,16.13,16.13,0,0,1-10.43-3.79,6.57,6.57,0,0,0-8.58.16,17.08,17.08,0,0,1-28.45-12.75l-.15,7.18v11.37a17.08,17.08,0,0,0,32.69,7,16.33,16.33,0,0,0,29.53,0,17.09,17.09,0,0,0,32.7-7Z"/><path class="cls-2" d="M152.26,134.72a10,10,0,1,0-10-10A10,10,0,0,0,152.26,134.72Z"/><path class="cls-5" d="M152.26,131a6.34,6.34,0,1,0-6.33-6.34A6.37,6.37,0,0,0,152.26,131Z"/><path class="cls-2" d="M120.42,134.72a10,10,0,1,0-10-10A10,10,0,0,0,120.42,134.72Z"/><path class="cls-5" d="M120.42,131a6.34,6.34,0,1,0-6.34-6.34A6.37,6.37,0,0,0,120.42,131Z"/><path class="cls-5" d="M136.34,132.71a1.7,1.7,0,1,0-1.7-1.7A1.76,1.76,0,0,0,136.34,132.71Z"/><path class="cls-6" d="M127.59,143.73a11.82,11.82,0,0,0,6.71,4c6,1.11,10.41-3.29,10.79-3.68"/></g></g></svg>