<svg xmlns="http://www.w3.org/2000/svg" viewBox="0 0 95.4 132.2"><defs><style>.cls-1{fill:#b2e6fb;}.cls-2{fill:#4b194e;opacity:0.1;isolation:isolate;}.cls-3{fill:none;stroke:#491249;stroke-linecap:round;stroke-linejoin:round;stroke-width:3.15px;}.cls-4{fill:#85c8eb;}</style></defs><g id="Layer_2" data-name="Layer 2"><g id="Layer_1-2" data-name="Layer 1"><path class="cls-1" d="M95.4,49.4c0,.8-.1,65.6-.1,65.6h-.1a17.1,17.1,0,0,1-32.7,7,16.35,16.35,0,0,1-29.6,0,17,17,0,0,1-15.6,10.1A17.26,17.26,0,0,1,.1,114.9S0,50.1,0,49.3C0,20.6,21.6,0,47.5,0,73.9.1,95.4,20.8,95.4,49.4Z"/><path class="cls-2" d="M95.4,96.5a17.24,17.24,0,0,1-17.2,17.1,17.86,17.86,0,0,1-11.4-4.3,6.66,6.66,0,0,0-8.6-.2,16.79,16.79,0,0,1-10.4,3.8,16,16,0,0,1-10.4-3.8,6.54,6.54,0,0,0-8.6.2,16.94,16.94,0,0,1-11.4,4.3A17.16,17.16,0,0,1,.3,96.5l-.2,7.2v11.4a17.1,17.1,0,0,0,32.7,7,16.35,16.35,0,0,0,29.6,0,17.1,17.1,0,0,0,32.7-7Z"/><path class="cls-3" d="M56.45,74.69c-.4-.4-4.8-4.8-10.8-3.7a11.57,11.57,0,0,0-6.7,3.9"/><path class="cls-3" d="M53.77,48.48c.7.8,3.7,4.51,7.4,5.11,6,1.1,10.2-4.71,10.6-5.11"/><path class="cls-3" d="M21.68,49.13c.7.8,3.71,4.51,7.41,5.11,6,1.1,10.2-4.71,10.6-5.11"/><path class="cls-4" d="M69.15,70.68c0,3.69,2.58,4.21,3.77,4.21s3.76-1.15,3.76-4.83-3.11-11.12-4.3-11.12S69.15,67,69.15,70.68Z"/></g></g></svg>