<svg xmlns="http://www.w3.org/2000/svg" viewBox="0 0 123.2 170.9"><defs><style>.cls-1{fill:#fff;}.cls-2{fill:#e6a4cd;}.cls-3{fill:#4b194e;opacity:0.1;isolation:isolate;}.cls-4{fill:#491249;}.cls-5{fill:#e28b91;}.cls-6{fill:#513465;}</style></defs><g id="Layer_2" data-name="Layer 2"><g id="Layer_1-2" data-name="Layer 1"><path class="cls-1" d="M123.2,63.9c0,1-.1,84.9-.1,84.9H123a22.11,22.11,0,0,1-42.3,9,21.12,21.12,0,0,1-38.2,0A22.17,22.17,0,0,1,.1,148.7S0,64.9,0,63.8C0,26.7,27.9,0,61.5,0,95.3.1,123.2,26.8,123.2,63.9Z"/><path class="cls-2" d="M109.2,68.7c0,.8-.1,65.6-.1,65.6H109a17.1,17.1,0,0,1-32.7,7,16.35,16.35,0,0,1-29.6,0,17,17,0,0,1-15.6,10.1,17.26,17.26,0,0,1-17.2-17.2s-.1-64.8-.1-65.6c0-28.7,21.6-49.3,47.5-49.3C87.7,19.4,109.2,40.1,109.2,68.7Z"/><path class="cls-3" d="M109.2,115.8A17.24,17.24,0,0,1,92,132.9a17.86,17.86,0,0,1-11.4-4.3,6.66,6.66,0,0,0-8.6-.2,16.79,16.79,0,0,1-10.4,3.8,16,16,0,0,1-10.4-3.8,6.54,6.54,0,0,0-8.6.2,16.94,16.94,0,0,1-11.4,4.3,17.16,17.16,0,0,1-17.1-17.1l-.2,7.2v11.4a17.1,17.1,0,0,0,32.7,7,16.35,16.35,0,0,0,29.6,0,17.1,17.1,0,0,0,32.7-7Z"/><path class="cls-1" d="M77.6,88.8a10,10,0,1,0-10-10A10,10,0,0,0,77.6,88.8Z"/><path class="cls-4" d="M77.6,85.1a6.34,6.34,0,0,0,6.3-6.3,6.3,6.3,0,0,0-12.6,0A6.21,6.21,0,0,0,77.6,85.1Z"/><path class="cls-1" d="M45.7,88.8a10,10,0,1,0-10-10A10,10,0,0,0,45.7,88.8Z"/><path class="cls-4" d="M45.7,85.1A6.34,6.34,0,0,0,52,78.8a6.4,6.4,0,0,0-6.3-6.3,6.34,6.34,0,0,0-6.3,6.3A6.27,6.27,0,0,0,45.7,85.1Z"/><path class="cls-4" d="M61.6,86.8a1.7,1.7,0,1,0-1.7-1.7A1.82,1.82,0,0,0,61.6,86.8Z"/><path class="cls-5" d="M70.33,99.32c-1.26,3-5.24,4.34-8.17,4.47-3.31.15-7.77-1.64-9.15-4.29a57.87,57.87,0,0,1,17.32-.18Z"/><path class="cls-6" d="M70.59,98.56a6.15,6.15,0,0,1-.25.76h0A57.87,57.87,0,0,0,53,99.5a3.63,3.63,0,0,1-.36-1c-.32-1.64.05-4.26,1.92-4.73,2.45-.61,3.57,2.87,7.2,2.94,3.48.07,5.38-3.54,7-2.68A3.71,3.71,0,0,1,70.59,98.56Z"/><circle class="cls-1" cx="49.63" cy="76.98" r="3.21"/></g></g></svg>