<svg xmlns="http://www.w3.org/2000/svg" viewBox="0 0 151.63 210.45"><defs><style>.cls-1{fill:#f8e3e3;}.cls-2{fill:#f47171;}.cls-3{fill:#4b194e;}.cls-3,.cls-7{opacity:0.1;isolation:isolate;}.cls-4{fill:#fff;}.cls-5{fill:#491249;}.cls-6,.cls-7{fill:none;stroke-linecap:round;stroke-linejoin:round;}.cls-6{stroke:#491249;stroke-width:3.15px;}.cls-7{stroke:#4b194e;stroke-width:7.86px;}</style></defs><g id="Layer_2" data-name="Layer 2"><g id="Layer_1-2" data-name="Layer 1"><path class="cls-1" d="M151.63,78.65c0,1.29-.08,104.58-.08,104.58h-.09A27.24,27.24,0,0,1,99.34,194.3a26,26,0,0,1-47.05,0A27.29,27.29,0,0,1,.09,183.14S0,79.85,0,78.56C0,32.8,34.34,0,75.82,0S151.63,32.89,151.63,78.65Z"/><path class="cls-2" d="M136.59,87.74c0,1-.07,84.89-.07,84.89h-.07a22.11,22.11,0,0,1-42.3,9,21.1,21.1,0,0,1-38.19,0,22.16,22.16,0,0,1-42.38-9.06s-.07-83.85-.07-84.89c0-37.15,27.88-63.77,61.54-63.77S136.59,50.59,136.59,87.74Z"/><path class="cls-2" d="M136.59,87.74c0,1-.07,84.89-.07,84.89h-.07a22.11,22.11,0,0,1-42.3,9,21.1,21.1,0,0,1-38.19,0,22.16,22.16,0,0,1-42.38-9.06s-.07-83.85-.07-84.89c0-37.15,27.88-63.77,61.54-63.77S136.59,50.59,136.59,87.74Z"/><path class="cls-3" d="M136.52,148.59A22.11,22.11,0,0,1,99.65,165a8.4,8.4,0,0,0-11.08-.21,21.33,21.33,0,0,1-13.45,4.88,20.77,20.77,0,0,1-13.45-4.88,8.4,8.4,0,0,0-11.08.21,22.06,22.06,0,0,1-36.8-16.44l-.21,9.27v14.7a22.11,22.11,0,0,0,42.3,9,21.09,21.09,0,0,0,38.19,0,22.12,22.12,0,0,0,42.31-9Z"/><path class="cls-4" d="M95.61,88.42A12.9,12.9,0,1,0,82.72,75.53,12.89,12.89,0,0,0,95.61,88.42Z"/><path class="cls-5" d="M95.61,83.68a8.16,8.16,0,1,0-8.16-8.16A8.15,8.15,0,0,0,95.61,83.68Z"/><path class="cls-4" d="M54.42,88.42A12.9,12.9,0,1,0,41.53,75.53,12.89,12.89,0,0,0,54.42,88.42Z"/><path class="cls-5" d="M54.42,83.68a8.16,8.16,0,1,0-8.16-8.16A8.15,8.15,0,0,0,54.42,83.68Z"/><path class="cls-5" d="M75.05,85.86a2.16,2.16,0,1,0-2.16-2.16A2.16,2.16,0,0,0,75.05,85.86Z"/><path class="cls-6" d="M84.8,94.29c-.83-1.05-1.67-2.23-3.34-2.23-3.21,0-3.21,4-6.41,4s-3.21-4-6.41-4c-1.68,0-2.51,1.11-3.35,2.23"/><path class="cls-7" d="M126.55,59.45a11.94,11.94,0,0,0-6,9.75v1.47a.89.89,0,0,0,.07.42c.56,5.85,5,13.24,10.45,18.74"/><path class="cls-7" d="M23.48,59.45a11.94,11.94,0,0,1,6,9.75v1.47a.89.89,0,0,1-.07.42c-.56,5.85-5,13.24-10.45,18.74"/><rect class="cls-5" x="79.17" y="62.63" width="30.4" height="9.27"/><rect class="cls-5" x="38.49" y="62.63" width="30.4" height="9.27"/></g></g></svg>