<svg xmlns="http://www.w3.org/2000/svg" viewBox="0 0 298.23 298.25"><defs><style>.cls-1,.cls-4,.cls-6{fill:none;}.cls-2{fill:#4b27d9;}.cls-3{fill:#e3bff7;}.cls-4,.cls-5,.cls-6{stroke:#000;}.cls-4,.cls-5{stroke-miterlimit:10;}.cls-6{stroke-linecap:round;stroke-linejoin:round;stroke-width:4px;}</style></defs><g id="Layer_2" data-name="Layer 2"><g id="Layer_1-2" data-name="Layer 1"><path class="cls-1" d="M130.85,146.62a27.71,27.71,0,1,1-27.72-27.7h0A27.71,27.71,0,0,1,130.85,146.62Z"/><circle class="cls-1" cx="149.12" cy="190.33" r="5.91"/><path class="cls-1" d="M222.8,146.62a27.71,27.71,0,1,1-27.72-27.7h0A27.71,27.71,0,0,1,222.8,146.62Z"/><path class="cls-2" d="M298.23,53.19V113C215.12,32.48,83.11,32.48,0,113V53.18A53.33,53.33,0,0,1,53.17,0H245.06A53.33,53.33,0,0,1,298.23,53.19Z"/><path class="cls-3" d="M149.12,52.61A213.59,213.59,0,0,0,0,113V245.07a53.33,53.33,0,0,0,53.17,53.18H245.06a53.33,53.33,0,0,0,53.17-53.18V113A213.67,213.67,0,0,0,149.12,52.61Zm-46,121.72a27.71,27.71,0,1,1,27.71-27.71h0a27.7,27.7,0,0,1-27.69,27.71Zm46,21.91a5.91,5.91,0,1,1,5.91-5.91,5.92,5.92,0,0,1-5.91,5.91Zm46-21.91a27.71,27.71,0,1,1,27.68-27.74v0a27.71,27.71,0,0,1-27.71,27.71Z"/><path class="cls-1" d="M130.85,146.62a27.71,27.71,0,1,1-27.72-27.7h0A27.71,27.71,0,0,1,130.85,146.62Z"/><circle class="cls-1" cx="149.12" cy="190.33" r="5.91"/><path class="cls-1" d="M222.8,146.62a27.71,27.71,0,1,1-27.72-27.7h0A27.71,27.71,0,0,1,222.8,146.62Z"/><path class="cls-4" d="M222.8,146.62a27.71,27.71,0,1,1-27.72-27.7h0A27.71,27.71,0,0,1,222.8,146.62Z"/><path class="cls-4" d="M130.85,146.62a27.71,27.71,0,1,1-27.72-27.7h0A27.71,27.71,0,0,1,130.85,146.62Z"/><circle class="cls-5" cx="149.12" cy="190.33" r="5.91"/><path class="cls-6" d="M111.11,203A41.26,41.26,0,0,0,147,229.58c17.16,1,33.34-9.3,40.15-25.63"/><circle class="cls-5" cx="103.14" cy="146.62" r="13.85"/><circle class="cls-5" cx="195.09" cy="146.62" r="13.85"/></g></g></svg>