<svg xmlns="http://www.w3.org/2000/svg" viewBox="0 0 173.96 166.69"><defs><style>.cls-1{fill:#fcc857;}.cls-2{fill:#fefefe;}.cls-3{fill:#d58e4d;}</style></defs><g id="Layer_2" data-name="Layer 2"><g id="Layer_1-2" data-name="Layer 1"><path class="cls-1" d="M105.45,165a106.46,106.46,0,0,0-13.91-7,13.59,13.59,0,0,0-10.43.52c-4.45,1.86-8.54,4.43-12.89,6.49-3.81,2.83-9.72,2-12.84-1.87a45.85,45.85,0,0,1-6-10.51,44.19,44.19,0,0,0-3.34-6,12.11,12.11,0,0,0-7.53-5.21,102.94,102.94,0,0,0-10.6-1.82,6.13,6.13,0,0,1-3.15-.88,8.65,8.65,0,0,0-1.06-.42c-7.18-2-9.7-6-8.65-13.42.61-4.18,1.46-8.33,1.94-12.54a14.09,14.09,0,0,0-4-11.79c-3.24-3.5-7-6.48-10-10.25C-1.09,85-1,80.91,3.19,75.7,6,72.22,9.4,69.37,12.54,66.24c4.36-4.33,5.16-9.4,4.15-15.12C16,47.21,15,43.33,14.92,39.35c-.2-6.77,2.49-10.17,9.17-11.5,4.47-.88,9-1.53,13.47-2.3a13.31,13.31,0,0,0,10-7.39c1.15-2.19,2.31-4.38,3.38-6.62C53.15,6.93,55.43,2.4,60.34,0h4.31c3.58.41,6.68,2.06,9.73,3.8a55.65,55.65,0,0,0,7.74,3.73,13.12,13.12,0,0,0,9.74,0A55.77,55.77,0,0,0,99.61,3.8c3-1.74,6.15-3.39,9.72-3.8h3.53c5.31,1.62,7.44,6.16,9.71,10.57,1.29,2.49,2.52,5,3.78,7.51,2.34,4.65,6.3,6.92,11.28,7.78,4.29.75,8.66,1.06,12.9,2.13,6.87,1.72,9.18,5.63,8.44,13-.45,4.41-1.55,8.71-2,13.13A13.93,13.93,0,0,0,160.31,65c3.2,3.8,7.24,6.76,10.38,10.63,4.32,5.33,4.37,9.68.07,14.94-3.11,3.8-6.95,6.88-10.23,10.51a13.06,13.06,0,0,0-3.64,10c.22,3,.8,5.93,1.27,8.89a46.11,46.11,0,0,1,.93,8.53c-.13,4.67-2.17,7.52-6.58,9.14-1.09.4-2.19.77-3.29,1.15-2.65,1.22-5.57,1.1-8.36,1.66a12.14,12.14,0,0,1-1.35.17c-6.82.6-11.41,4.16-14.19,10.36a73.93,73.93,0,0,1-4.31,8.75,24.38,24.38,0,0,1-2.9,3.92C114.79,167.14,109.82,167.68,105.45,165Z"/><path class="cls-2" d="M109.33,0c-5.11,1.61-9.69,4.36-14.4,6.82a16.21,16.21,0,0,1-15.88,0c-3.59-1.85-7-4-10.82-5.46C67.05.89,65.85.45,64.65,0Z"/><path class="cls-3" d="M86.41,135.22a52.07,52.07,0,0,1,.46-104.14c29.42,0,52.5,23.09,52.16,53.05C138.71,111.72,116.38,135.18,86.41,135.22Z"/><path class="cls-2" d="M76.9,108.21c3.5-.13,5-1.72,5-5.43a2.52,2.52,0,0,0,.16-1.33V70.24a2.46,2.46,0,0,0-.17-1.34c-.39-2.51-2-3.78-4.66-3.44a18.34,18.34,0,0,0-2.8.74c-.5.15-.93.45-1.3-.26s0-1,.63-1.29c2.09-1,4.16-2,6.27-3,3.45-1.56,6.93-3.06,10.37-4.65a5.38,5.38,0,0,1,2.8-.6,3.68,3.68,0,0,1,.2,2.1q0,21.06,0,42.11a4.9,4.9,0,0,0,.16,2.12c0,3.79,1.29,5.32,4.65,5.43.9.44,1.93-.14,2.83.36v1.16a1.29,1.29,0,0,1-.54.19c-9,0-17.9.1-26.85-.06q-.88-.7,0-1.41C74.76,108.21,75.86,108.59,76.9,108.21Z"/><path class="cls-1" d="M93.62,102.78a6.29,6.29,0,0,1-.29-3.07q0-20.46,0-40.92c0-.78,0-1.56-.07-2.34.52.36.41.91.41,1.42Z"/><path class="cls-1" d="M81.93,68.9a5.23,5.23,0,0,1,.3,2.68q0,14.55,0,29.11a3.67,3.67,0,0,1-.29,2.09Q81.94,85.85,81.93,68.9Z"/><path class="cls-1" d="M73.71,109.86l24.46-.07c1,0,2,0,2.93-.06-.38.51-.93.4-1.44.4q-12.42,0-24.85,0A1.49,1.49,0,0,1,73.71,109.86Z"/><path class="cls-1" d="M76.9,108.21a6.29,6.29,0,0,1-3.19.24C74.74,107.89,75.84,108.26,76.9,108.21Z"/><path class="cls-1" d="M101.1,108.57c-.93-.2-1.94.19-2.83-.36C99.22,108.29,100.24,107.82,101.1,108.57Z"/></g></g></svg>