<svg xmlns="http://www.w3.org/2000/svg" viewBox="0 0 173.96 166.69"><defs><style>.cls-1{fill:#fcc857;}.cls-2{fill:#d58e4d;}.cls-3{font-size:66px;fill:#fff;font-family:SansSerif;}</style></defs><g id="Layer_2" data-name="Layer 2"><g id="Layer_1-2" data-name="Layer 1"><path class="cls-1" d="M105.45,165a106.46,106.46,0,0,0-13.91-7,13.59,13.59,0,0,0-10.43.52c-4.45,1.86-8.54,4.43-12.89,6.49-3.81,2.83-9.72,2-12.84-1.87a45.85,45.85,0,0,1-6-10.51,44.19,44.19,0,0,0-3.34-6,12.11,12.11,0,0,0-7.53-5.21,102.94,102.94,0,0,0-10.6-1.82,6.13,6.13,0,0,1-3.15-.88,8.65,8.65,0,0,0-1.06-.42c-7.18-2-9.7-6-8.65-13.42.61-4.18,1.46-8.33,1.94-12.54a14.09,14.09,0,0,0-4-11.79c-3.24-3.5-7-6.48-10-10.25C-1.09,85-1,80.91,3.19,75.7,6,72.22,9.4,69.37,12.54,66.24c4.36-4.33,5.16-9.4,4.15-15.12C16,47.21,15,43.33,14.92,39.35c-.2-6.77,2.49-10.17,9.17-11.5,4.47-.88,9-1.53,13.47-2.3a13.31,13.31,0,0,0,10-7.39c1.15-2.19,2.31-4.38,3.38-6.62C53.15,6.93,55.43,2.4,60.34,0h4.31c3.58.41,6.68,2.06,9.73,3.8a55.65,55.65,0,0,0,7.74,3.73,13.12,13.12,0,0,0,9.74,0A55.77,55.77,0,0,0,99.61,3.8c3-1.74,6.15-3.39,9.72-3.8h3.53c5.31,1.62,7.44,6.16,9.71,10.57,1.29,2.49,2.52,5,3.78,7.51,2.34,4.65,6.3,6.92,11.28,7.78,4.29.75,8.66,1.06,12.9,2.13,6.87,1.72,9.18,5.63,8.44,13-.45,4.41-1.55,8.71-2,13.13A13.93,13.93,0,0,0,160.31,65c3.2,3.8,7.24,6.76,10.38,10.63,4.32,5.33,4.37,9.68.07,14.94-3.11,3.8-6.95,6.88-10.23,10.51a13.06,13.06,0,0,0-3.64,10c.22,3,.8,5.93,1.27,8.89a46.11,46.11,0,0,1,.93,8.53c-.13,4.67-2.17,7.52-6.58,9.14-1.09.4-2.19.77-3.29,1.15-2.65,1.22-5.57,1.1-8.36,1.66a12.14,12.14,0,0,1-1.35.17c-6.82.6-11.41,4.16-14.19,10.36a73.93,73.93,0,0,1-4.31,8.75,24.38,24.38,0,0,1-2.9,3.92C114.79,167.14,109.82,167.68,105.45,165Z"/><path class="cls-2" d="M86.41,135.22a52.07,52.07,0,0,1,.46-104.14c29.42,0,52.5,23.09,52.16,53.05C138.71,111.72,116.38,135.18,86.41,135.22Z"/><text class="cls-3" transform="translate(67.91 105.98)">2</text></g></g></svg>